STARTFONT 2.1
FONT -FontForge-Dogica Pixel-Book-R-Normal--16-150-75-75-P-140-ISO10646-1
SIZE 15 75 75
FONTBOUNDINGBOX 18 16 0 -2
COMMENT "Generated by fontforge, http://fontforge.sourceforge.net"
COMMENT "OFL Copyright (c) 2020, Roberto Mocci"
STARTPROPERTIES 41
FOUNDRY "FontForge"
FAMILY_NAME "Dogica Pixel"
WEIGHT_NAME "Book"
SLANT "R"
SETWIDTH_NAME "Normal"
ADD_STYLE_NAME ""
PIXEL_SIZE 16
POINT_SIZE 150
RESOLUTION_X 75
RESOLUTION_Y 75
SPACING "P"
AVERAGE_WIDTH 140
CHARSET_REGISTRY "ISO10646"
CHARSET_ENCODING "1"
FONTNAME_REGISTRY ""
CHARSET_COLLECTIONS "ISO10646-1"
FONT_NAME "Dogica_Pixel"
FACE_NAME "Dogica Pixel"
COPYRIGHT "OFL Copyright (c) 2020, Roberto Mocci"
FONT_VERSION "001.000"
FONT_ASCENT 13
FONT_DESCENT 3
UNDERLINE_POSITION 0
UNDERLINE_THICKNESS 2
X_HEIGHT 11
CAP_HEIGHT 13
DEFAULT_CHAR 1
RAW_ASCENT 800
RAW_DESCENT 200
NORM_SPACE 8
RELATIVE_WEIGHT 40
RELATIVE_SETWIDTH 50
SUPERSCRIPT_X 0
SUPERSCRIPT_Y 7
SUPERSCRIPT_SIZE 11
SUBSCRIPT_X 0
SUBSCRIPT_Y 2
SUBSCRIPT_SIZE 11
FIGURE_WIDTH 14
AVG_LOWERCASE_WIDTH 145
AVG_UPPERCASE_WIDTH 148
ENDPROPERTIES
CHARS 262
STARTCHAR uni0000
ENCODING 0
SWIDTH 1000 0
DWIDTH 16 0
BBX 1 1 0 0
BITMAP
00
ENDCHAR
STARTCHAR uni0001
ENCODING 1
SWIDTH 1000 0
DWIDTH 16 0
BBX 1 1 0 0
BITMAP
00
ENDCHAR
STARTCHAR uni0002
ENCODING 2
SWIDTH 1000 0
DWIDTH 16 0
BBX 1 1 0 0
BITMAP
00
ENDCHAR
STARTCHAR uni0003
ENCODING 3
SWIDTH 1000 0
DWIDTH 16 0
BBX 1 1 0 0
BITMAP
00
ENDCHAR
STARTCHAR uni0004
ENCODING 4
SWIDTH 1000 0
DWIDTH 16 0
BBX 1 1 0 0
BITMAP
00
ENDCHAR
STARTCHAR uni0005
ENCODING 5
SWIDTH 1000 0
DWIDTH 16 0
BBX 1 1 0 0
BITMAP
00
ENDCHAR
STARTCHAR uni0006
ENCODING 6
SWIDTH 1000 0
DWIDTH 16 0
BBX 1 1 0 0
BITMAP
00
ENDCHAR
STARTCHAR uni0007
ENCODING 7
SWIDTH 1000 0
DWIDTH 16 0
BBX 1 1 0 0
BITMAP
00
ENDCHAR
STARTCHAR uni0008
ENCODING 8
SWIDTH 1000 0
DWIDTH 16 0
BBX 1 1 0 0
BITMAP
00
ENDCHAR
STARTCHAR uni0009
ENCODING 9
SWIDTH 1000 0
DWIDTH 16 0
BBX 1 1 0 0
BITMAP
00
ENDCHAR
STARTCHAR uni000A
ENCODING 10
SWIDTH 1000 0
DWIDTH 16 0
BBX 1 1 0 0
BITMAP
00
ENDCHAR
STARTCHAR uni000B
ENCODING 11
SWIDTH 1000 0
DWIDTH 16 0
BBX 1 1 0 0
BITMAP
00
ENDCHAR
STARTCHAR uni000C
ENCODING 12
SWIDTH 1000 0
DWIDTH 16 0
BBX 1 1 0 0
BITMAP
00
ENDCHAR
STARTCHAR uni000D
ENCODING 13
SWIDTH 1000 0
DWIDTH 16 0
BBX 1 1 0 0
BITMAP
00
ENDCHAR
STARTCHAR uni000E
ENCODING 14
SWIDTH 1000 0
DWIDTH 16 0
BBX 1 1 0 0
BITMAP
00
ENDCHAR
STARTCHAR uni000F
ENCODING 15
SWIDTH 1000 0
DWIDTH 16 0
BBX 1 1 0 0
BITMAP
00
ENDCHAR
STARTCHAR uni0010
ENCODING 16
SWIDTH 1000 0
DWIDTH 16 0
BBX 1 1 0 0
BITMAP
00
ENDCHAR
STARTCHAR uni0011
ENCODING 17
SWIDTH 1000 0
DWIDTH 16 0
BBX 1 1 0 0
BITMAP
00
ENDCHAR
STARTCHAR uni0012
ENCODING 18
SWIDTH 1000 0
DWIDTH 16 0
BBX 1 1 0 0
BITMAP
00
ENDCHAR
STARTCHAR uni0013
ENCODING 19
SWIDTH 1000 0
DWIDTH 16 0
BBX 1 1 0 0
BITMAP
00
ENDCHAR
STARTCHAR uni0014
ENCODING 20
SWIDTH 1000 0
DWIDTH 16 0
BBX 1 1 0 0
BITMAP
00
ENDCHAR
STARTCHAR uni0015
ENCODING 21
SWIDTH 1000 0
DWIDTH 16 0
BBX 1 1 0 0
BITMAP
00
ENDCHAR
STARTCHAR uni0016
ENCODING 22
SWIDTH 1000 0
DWIDTH 16 0
BBX 1 1 0 0
BITMAP
00
ENDCHAR
STARTCHAR uni0017
ENCODING 23
SWIDTH 1000 0
DWIDTH 16 0
BBX 1 1 0 0
BITMAP
00
ENDCHAR
STARTCHAR uni0018
ENCODING 24
SWIDTH 1000 0
DWIDTH 16 0
BBX 1 1 0 0
BITMAP
00
ENDCHAR
STARTCHAR uni0019
ENCODING 25
SWIDTH 1000 0
DWIDTH 16 0
BBX 1 1 0 0
BITMAP
00
ENDCHAR
STARTCHAR uni001A
ENCODING 26
SWIDTH 1000 0
DWIDTH 16 0
BBX 1 1 0 0
BITMAP
00
ENDCHAR
STARTCHAR uni001B
ENCODING 27
SWIDTH 1000 0
DWIDTH 16 0
BBX 1 1 0 0
BITMAP
00
ENDCHAR
STARTCHAR uni001C
ENCODING 28
SWIDTH 1000 0
DWIDTH 16 0
BBX 1 1 0 0
BITMAP
00
ENDCHAR
STARTCHAR uni001D
ENCODING 29
SWIDTH 1000 0
DWIDTH 16 0
BBX 1 1 0 0
BITMAP
00
ENDCHAR
STARTCHAR uni001E
ENCODING 30
SWIDTH 1000 0
DWIDTH 16 0
BBX 1 1 0 0
BITMAP
00
ENDCHAR
STARTCHAR uni001F
ENCODING 31
SWIDTH 1000 0
DWIDTH 16 0
BBX 1 1 0 0
BITMAP
00
ENDCHAR
STARTCHAR space
ENCODING 32
SWIDTH 500 0
DWIDTH 8 0
BBX 1 1 0 0
BITMAP
00
ENDCHAR
STARTCHAR exclam
ENCODING 33
SWIDTH 375 0
DWIDTH 6 0
BBX 2 14 2 0
BITMAP
C0
C0
C0
C0
C0
C0
C0
C0
C0
C0
00
00
C0
C0
ENDCHAR
STARTCHAR quotedbl
ENCODING 34
SWIDTH 750 0
DWIDTH 12 0
BBX 8 6 2 6
BITMAP
33
33
33
33
CC
CC
ENDCHAR
STARTCHAR numbersign
ENCODING 35
SWIDTH 1000 0
DWIDTH 16 0
BBX 12 12 2 0
BITMAP
30C0
30C0
FFF0
FFF0
30C0
30C0
30C0
30C0
FFF0
FFF0
30C0
30C0
ENDCHAR
STARTCHAR dollar
ENCODING 36
SWIDTH 875 0
DWIDTH 14 0
BBX 10 14 2 -2
BITMAP
3F00
3F00
CCC0
CCC0
CC00
CC00
3F00
3F00
0CC0
0CC0
CCC0
CCC0
3F00
3F00
ENDCHAR
STARTCHAR percent
ENCODING 37
SWIDTH 1125 0
DWIDTH 18 0
BBX 14 16 2 -2
BITMAP
3030
3030
CCC0
CCC0
CCC0
CCC0
3300
3300
0330
0330
0CCC
0CCC
0CCC
0CCC
3030
3030
ENDCHAR
STARTCHAR ampersand
ENCODING 38
SWIDTH 1000 0
DWIDTH 16 0
BBX 12 14 2 0
BITMAP
3C00
3C00
C300
C300
C300
C300
3C00
3C00
C330
C330
C0C0
C0C0
3F30
3F30
ENDCHAR
STARTCHAR quotesingle
ENCODING 39
SWIDTH 500 0
DWIDTH 8 0
BBX 4 6 2 6
BITMAP
30
30
30
30
C0
C0
ENDCHAR
STARTCHAR parenleft
ENCODING 40
SWIDTH 500 0
DWIDTH 8 0
BBX 4 14 2 0
BITMAP
30
30
C0
C0
C0
C0
C0
C0
C0
C0
C0
C0
30
30
ENDCHAR
STARTCHAR parenright
ENCODING 41
SWIDTH 500 0
DWIDTH 8 0
BBX 4 14 2 0
BITMAP
C0
C0
30
30
30
30
30
30
30
30
30
30
C0
C0
ENDCHAR
STARTCHAR asterisk
ENCODING 42
SWIDTH 875 0
DWIDTH 14 0
BBX 10 10 2 2
BITMAP
0C00
0C00
CCC0
CCC0
3300
3300
CCC0
CCC0
0C00
0C00
ENDCHAR
STARTCHAR plus
ENCODING 43
SWIDTH 875 0
DWIDTH 14 0
BBX 10 10 2 2
BITMAP
0C00
0C00
0C00
0C00
FFC0
FFC0
0C00
0C00
0C00
0C00
ENDCHAR
STARTCHAR comma
ENCODING 44
SWIDTH 500 0
DWIDTH 8 0
BBX 4 6 2 -2
BITMAP
30
30
30
30
C0
C0
ENDCHAR
STARTCHAR hyphen
ENCODING 45
SWIDTH 750 0
DWIDTH 12 0
BBX 8 2 2 4
BITMAP
FF
FF
ENDCHAR
STARTCHAR period
ENCODING 46
SWIDTH 375 0
DWIDTH 6 0
BBX 2 2 2 0
BITMAP
C0
C0
ENDCHAR
STARTCHAR slash
ENCODING 47
SWIDTH 750 0
DWIDTH 12 0
BBX 8 16 2 -2
BITMAP
03
03
03
03
0C
0C
0C
0C
30
30
30
30
C0
C0
C0
C0
ENDCHAR
STARTCHAR zero
ENCODING 48
SWIDTH 875 0
DWIDTH 14 0
BBX 10 14 2 0
BITMAP
3F00
3F00
C0C0
C0C0
CCC0
CCC0
CCC0
CCC0
CCC0
CCC0
C0C0
C0C0
3F00
3F00
ENDCHAR
STARTCHAR one
ENCODING 49
SWIDTH 875 0
DWIDTH 14 0
BBX 10 14 2 0
BITMAP
0C00
0C00
FC00
FC00
0C00
0C00
0C00
0C00
0C00
0C00
0C00
0C00
FFC0
FFC0
ENDCHAR
STARTCHAR two
ENCODING 50
SWIDTH 875 0
DWIDTH 14 0
BBX 10 14 2 0
BITMAP
3F00
3F00
C0C0
C0C0
00C0
00C0
0300
0300
0C00
0C00
3000
3000
FFC0
FFC0
ENDCHAR
STARTCHAR three
ENCODING 51
SWIDTH 875 0
DWIDTH 14 0
BBX 10 14 2 0
BITMAP
FF00
FF00
00C0
00C0
00C0
00C0
3F00
3F00
00C0
00C0
00C0
00C0
FF00
FF00
ENDCHAR
STARTCHAR four
ENCODING 52
SWIDTH 875 0
DWIDTH 14 0
BBX 10 14 2 0
BITMAP
0300
0300
0F00
0F00
3300
3300
C300
C300
FFC0
FFC0
0300
0300
0300
0300
ENDCHAR
STARTCHAR five
ENCODING 53
SWIDTH 875 0
DWIDTH 14 0
BBX 10 14 2 0
BITMAP
FFC0
FFC0
C000
C000
FF00
FF00
00C0
00C0
00C0
00C0
C0C0
C0C0
3F00
3F00
ENDCHAR
STARTCHAR six
ENCODING 54
SWIDTH 875 0
DWIDTH 14 0
BBX 10 14 2 0
BITMAP
3F00
3F00
C0C0
C0C0
C000
C000
FF00
FF00
C0C0
C0C0
C0C0
C0C0
3F00
3F00
ENDCHAR
STARTCHAR seven
ENCODING 55
SWIDTH 875 0
DWIDTH 14 0
BBX 10 14 2 0
BITMAP
FFC0
FFC0
C0C0
C0C0
00C0
00C0
0300
0300
0C00
0C00
3000
3000
3000
3000
ENDCHAR
STARTCHAR eight
ENCODING 56
SWIDTH 875 0
DWIDTH 14 0
BBX 10 14 2 0
BITMAP
3F00
3F00
C0C0
C0C0
C0C0
C0C0
3F00
3F00
C0C0
C0C0
C0C0
C0C0
3F00
3F00
ENDCHAR
STARTCHAR nine
ENCODING 57
SWIDTH 875 0
DWIDTH 14 0
BBX 10 14 2 0
BITMAP
3F00
3F00
C0C0
C0C0
C0C0
C0C0
3FC0
3FC0
00C0
00C0
0300
0300
3C00
3C00
ENDCHAR
STARTCHAR colon
ENCODING 58
SWIDTH 375 0
DWIDTH 6 0
BBX 2 8 2 2
BITMAP
C0
C0
00
00
00
00
C0
C0
ENDCHAR
STARTCHAR semicolon
ENCODING 59
SWIDTH 500 0
DWIDTH 8 0
BBX 4 10 2 -2
BITMAP
30
30
00
00
30
30
30
30
C0
C0
ENDCHAR
STARTCHAR less
ENCODING 60
SWIDTH 625 0
DWIDTH 10 0
BBX 6 10 2 2
BITMAP
0C
0C
30
30
C0
C0
30
30
0C
0C
ENDCHAR
STARTCHAR equal
ENCODING 61
SWIDTH 1000 0
DWIDTH 16 0
BBX 12 6 2 4
BITMAP
FFF0
FFF0
0000
0000
FFF0
FFF0
ENDCHAR
STARTCHAR greater
ENCODING 62
SWIDTH 625 0
DWIDTH 10 0
BBX 6 10 2 2
BITMAP
C0
C0
30
30
0C
0C
30
30
C0
C0
ENDCHAR
STARTCHAR question
ENCODING 63
SWIDTH 875 0
DWIDTH 14 0
BBX 10 14 2 0
BITMAP
3F00
3F00
C0C0
C0C0
00C0
00C0
0F00
0F00
3000
3000
0000
0000
0C00
0C00
ENDCHAR
STARTCHAR at
ENCODING 64
SWIDTH 1125 0
DWIDTH 18 0
BBX 14 14 2 0
BITMAP
3FC0
3FC0
C030
C030
CF30
CF30
C330
C330
CFC0
CFC0
C00C
C00C
3FF0
3FF0
ENDCHAR
STARTCHAR A
ENCODING 65
SWIDTH 875 0
DWIDTH 14 0
BBX 10 14 2 0
BITMAP
3F00
3F00
C0C0
C0C0
C0C0
C0C0
C0C0
C0C0
FFC0
FFC0
C0C0
C0C0
C0C0
C0C0
ENDCHAR
STARTCHAR B
ENCODING 66
SWIDTH 875 0
DWIDTH 14 0
BBX 10 14 2 0
BITMAP
FF00
FF00
C0C0
C0C0
C0C0
C0C0
FF00
FF00
C0C0
C0C0
C0C0
C0C0
FF00
FF00
ENDCHAR
STARTCHAR C
ENCODING 67
SWIDTH 875 0
DWIDTH 14 0
BBX 10 14 2 0
BITMAP
3F00
3F00
C0C0
C0C0
C000
C000
C000
C000
C000
C000
C0C0
C0C0
3F00
3F00
ENDCHAR
STARTCHAR D
ENCODING 68
SWIDTH 1000 0
DWIDTH 16 0
BBX 12 14 2 0
BITMAP
FFC0
FFC0
3030
3030
3030
3030
3030
3030
3030
3030
3030
3030
3FC0
3FC0
ENDCHAR
STARTCHAR E
ENCODING 69
SWIDTH 875 0
DWIDTH 14 0
BBX 10 14 2 0
BITMAP
FFC0
FFC0
C000
C000
C000
C000
FF00
FF00
C000
C000
C000
C000
FFC0
FFC0
ENDCHAR
STARTCHAR F
ENCODING 70
SWIDTH 875 0
DWIDTH 14 0
BBX 10 14 2 0
BITMAP
FFC0
FFC0
C000
C000
C000
C000
FF00
FF00
C000
C000
C000
C000
C000
C000
ENDCHAR
STARTCHAR G
ENCODING 71
SWIDTH 875 0
DWIDTH 14 0
BBX 10 14 2 0
BITMAP
3FC0
3FC0
C000
C000
C000
C000
C3C0
C3C0
C0C0
C0C0
C0C0
C0C0
3FC0
3FC0
ENDCHAR
STARTCHAR H
ENCODING 72
SWIDTH 875 0
DWIDTH 14 0
BBX 10 14 2 0
BITMAP
C0C0
C0C0
C0C0
C0C0
C0C0
C0C0
FFC0
FFC0
C0C0
C0C0
C0C0
C0C0
C0C0
C0C0
ENDCHAR
STARTCHAR I
ENCODING 73
SWIDTH 625 0
DWIDTH 10 0
BBX 6 14 2 0
BITMAP
FC
FC
30
30
30
30
30
30
30
30
30
30
FC
FC
ENDCHAR
STARTCHAR J
ENCODING 74
SWIDTH 750 0
DWIDTH 12 0
BBX 8 14 2 0
BITMAP
FF
FF
0C
0C
0C
0C
0C
0C
0C
0C
0C
0C
F0
F0
ENDCHAR
STARTCHAR K
ENCODING 75
SWIDTH 875 0
DWIDTH 14 0
BBX 10 14 2 0
BITMAP
C0C0
C0C0
C300
C300
CC00
CC00
FC00
FC00
C300
C300
C300
C300
C0C0
C0C0
ENDCHAR
STARTCHAR L
ENCODING 76
SWIDTH 750 0
DWIDTH 12 0
BBX 8 14 2 0
BITMAP
C0
C0
C0
C0
C0
C0
C0
C0
C0
C0
C0
C0
FF
FF
ENDCHAR
STARTCHAR M
ENCODING 77
SWIDTH 1000 0
DWIDTH 16 0
BBX 12 14 2 0
BITMAP
C030
C030
C030
C030
F0F0
F0F0
CF30
CF30
C030
C030
C030
C030
C030
C030
ENDCHAR
STARTCHAR N
ENCODING 78
SWIDTH 875 0
DWIDTH 14 0
BBX 10 14 2 0
BITMAP
C0C0
C0C0
F0C0
F0C0
CCC0
CCC0
C3C0
C3C0
C0C0
C0C0
C0C0
C0C0
C0C0
C0C0
ENDCHAR
STARTCHAR O
ENCODING 79
SWIDTH 875 0
DWIDTH 14 0
BBX 10 14 2 0
BITMAP
3F00
3F00
C0C0
C0C0
C0C0
C0C0
C0C0
C0C0
C0C0
C0C0
C0C0
C0C0
3F00
3F00
ENDCHAR
STARTCHAR P
ENCODING 80
SWIDTH 875 0
DWIDTH 14 0
BBX 10 14 2 0
BITMAP
FF00
FF00
C0C0
C0C0
C0C0
C0C0
FF00
FF00
C000
C000
C000
C000
C000
C000
ENDCHAR
STARTCHAR Q
ENCODING 81
SWIDTH 875 0
DWIDTH 14 0
BBX 10 14 2 0
BITMAP
3F00
3F00
C0C0
C0C0
C0C0
C0C0
C0C0
C0C0
CCC0
CCC0
C300
C300
3CC0
3CC0
ENDCHAR
STARTCHAR R
ENCODING 82
SWIDTH 875 0
DWIDTH 14 0
BBX 10 14 2 0
BITMAP
FF00
FF00
C0C0
C0C0
C0C0
C0C0
FF00
FF00
C300
C300
C0C0
C0C0
C0C0
C0C0
ENDCHAR
STARTCHAR S
ENCODING 83
SWIDTH 875 0
DWIDTH 14 0
BBX 10 14 2 0
BITMAP
3F00
3F00
C0C0
C0C0
C000
C000
3F00
3F00
00C0
00C0
C0C0
C0C0
3F00
3F00
ENDCHAR
STARTCHAR T
ENCODING 84
SWIDTH 875 0
DWIDTH 14 0
BBX 10 14 2 0
BITMAP
FFC0
FFC0
0C00
0C00
0C00
0C00
0C00
0C00
0C00
0C00
0C00
0C00
0C00
0C00
ENDCHAR
STARTCHAR U
ENCODING 85
SWIDTH 875 0
DWIDTH 14 0
BBX 10 14 2 0
BITMAP
C0C0
C0C0
C0C0
C0C0
C0C0
C0C0
C0C0
C0C0
C0C0
C0C0
C0C0
C0C0
3F00
3F00
ENDCHAR
STARTCHAR V
ENCODING 86
SWIDTH 875 0
DWIDTH 14 0
BBX 10 14 2 0
BITMAP
C0C0
C0C0
C0C0
C0C0
C0C0
C0C0
C0C0
C0C0
3300
3300
3300
3300
0C00
0C00
ENDCHAR
STARTCHAR W
ENCODING 87
SWIDTH 1125 0
DWIDTH 18 0
BBX 14 14 2 0
BITMAP
C00C
C00C
C00C
C00C
C30C
C30C
C30C
C30C
C30C
C30C
CCCC
CCCC
3030
3030
ENDCHAR
STARTCHAR X
ENCODING 88
SWIDTH 875 0
DWIDTH 14 0
BBX 10 14 2 0
BITMAP
C0C0
C0C0
C0C0
C0C0
3300
3300
0C00
0C00
3300
3300
C0C0
C0C0
C0C0
C0C0
ENDCHAR
STARTCHAR Y
ENCODING 89
SWIDTH 875 0
DWIDTH 14 0
BBX 10 14 2 0
BITMAP
C0C0
C0C0
C0C0
C0C0
C0C0
C0C0
3300
3300
0C00
0C00
0C00
0C00
0C00
0C00
ENDCHAR
STARTCHAR Z
ENCODING 90
SWIDTH 875 0
DWIDTH 14 0
BBX 10 14 2 0
BITMAP
FFC0
FFC0
00C0
00C0
0300
0300
0C00
0C00
3000
3000
C000
C000
FFC0
FFC0
ENDCHAR
STARTCHAR bracketleft
ENCODING 91
SWIDTH 500 0
DWIDTH 8 0
BBX 4 14 2 0
BITMAP
F0
F0
C0
C0
C0
C0
C0
C0
C0
C0
C0
C0
F0
F0
ENDCHAR
STARTCHAR backslash
ENCODING 92
SWIDTH 750 0
DWIDTH 12 0
BBX 8 16 2 -2
BITMAP
C0
C0
C0
C0
30
30
30
30
0C
0C
0C
0C
03
03
03
03
ENDCHAR
STARTCHAR bracketright
ENCODING 93
SWIDTH 500 0
DWIDTH 8 0
BBX 4 14 2 0
BITMAP
F0
F0
30
30
30
30
30
30
30
30
30
30
F0
F0
ENDCHAR
STARTCHAR asciicircum
ENCODING 94
SWIDTH 750 0
DWIDTH 12 0
BBX 8 4 2 8
BITMAP
3C
3C
C3
C3
ENDCHAR
STARTCHAR underscore
ENCODING 95
SWIDTH 1000 0
DWIDTH 16 0
BBX 12 2 2 -2
BITMAP
FFF0
FFF0
ENDCHAR
STARTCHAR grave
ENCODING 96
SWIDTH 500 0
DWIDTH 8 0
BBX 4 6 2 6
BITMAP
C0
C0
30
30
30
30
ENDCHAR
STARTCHAR a
ENCODING 97
SWIDTH 875 0
DWIDTH 14 0
BBX 10 12 2 0
BITMAP
3F00
3F00
00C0
00C0
3FC0
3FC0
C0C0
C0C0
C0C0
C0C0
3FC0
3FC0
ENDCHAR
STARTCHAR b
ENCODING 98
SWIDTH 875 0
DWIDTH 14 0
BBX 10 14 2 0
BITMAP
C000
C000
C000
C000
FF00
FF00
C0C0
C0C0
C0C0
C0C0
C0C0
C0C0
FF00
FF00
ENDCHAR
STARTCHAR c
ENCODING 99
SWIDTH 875 0
DWIDTH 14 0
BBX 10 12 2 0
BITMAP
3F00
3F00
C0C0
C0C0
C000
C000
C000
C000
C000
C000
3FC0
3FC0
ENDCHAR
STARTCHAR d
ENCODING 100
SWIDTH 875 0
DWIDTH 14 0
BBX 10 14 2 0
BITMAP
00C0
00C0
00C0
00C0
3FC0
3FC0
C0C0
C0C0
C0C0
C0C0
C0C0
C0C0
3FC0
3FC0
ENDCHAR
STARTCHAR e
ENCODING 101
SWIDTH 875 0
DWIDTH 14 0
BBX 10 12 2 0
BITMAP
3F00
3F00
C0C0
C0C0
FFC0
FFC0
C000
C000
C000
C000
3FC0
3FC0
ENDCHAR
STARTCHAR f
ENCODING 102
SWIDTH 875 0
DWIDTH 14 0
BBX 10 14 2 0
BITMAP
0FC0
0FC0
3000
3000
3000
3000
FF00
FF00
3000
3000
3000
3000
3000
3000
ENDCHAR
STARTCHAR g
ENCODING 103
SWIDTH 875 0
DWIDTH 14 0
BBX 10 14 2 -2
BITMAP
3FC0
3FC0
C0C0
C0C0
C0C0
C0C0
C0C0
C0C0
3FC0
3FC0
00C0
00C0
3F00
3F00
ENDCHAR
STARTCHAR h
ENCODING 104
SWIDTH 875 0
DWIDTH 14 0
BBX 10 14 2 0
BITMAP
C000
C000
C000
C000
CF00
CF00
F0C0
F0C0
C0C0
C0C0
C0C0
C0C0
C0C0
C0C0
ENDCHAR
STARTCHAR i
ENCODING 105
SWIDTH 625 0
DWIDTH 10 0
BBX 6 14 2 0
BITMAP
30
30
00
00
F0
F0
30
30
30
30
30
30
FC
FC
ENDCHAR
STARTCHAR j
ENCODING 106
SWIDTH 625 0
DWIDTH 10 0
BBX 6 14 2 -2
BITMAP
FC
FC
30
30
30
30
30
30
30
30
30
30
C0
C0
ENDCHAR
STARTCHAR k
ENCODING 107
SWIDTH 875 0
DWIDTH 14 0
BBX 10 12 2 0
BITMAP
C0C0
C0C0
C300
C300
CC00
CC00
FC00
FC00
C300
C300
C0C0
C0C0
ENDCHAR
STARTCHAR l
ENCODING 108
SWIDTH 625 0
DWIDTH 10 0
BBX 6 12 2 0
BITMAP
C0
C0
C0
C0
C0
C0
C0
C0
C0
C0
3C
3C
ENDCHAR
STARTCHAR m
ENCODING 109
SWIDTH 1125 0
DWIDTH 18 0
BBX 14 12 2 0
BITMAP
3CF0
3CF0
C30C
C30C
C30C
C30C
C30C
C30C
C30C
C30C
C30C
C30C
ENDCHAR
STARTCHAR n
ENCODING 110
SWIDTH 875 0
DWIDTH 14 0
BBX 10 12 2 0
BITMAP
0F00
0F00
F0C0
F0C0
C0C0
C0C0
C0C0
C0C0
C0C0
C0C0
C0C0
C0C0
ENDCHAR
STARTCHAR o
ENCODING 111
SWIDTH 875 0
DWIDTH 14 0
BBX 10 12 2 0
BITMAP
3F00
3F00
C0C0
C0C0
C0C0
C0C0
C0C0
C0C0
C0C0
C0C0
3F00
3F00
ENDCHAR
STARTCHAR p
ENCODING 112
SWIDTH 875 0
DWIDTH 14 0
BBX 10 14 2 -2
BITMAP
FF00
FF00
C0C0
C0C0
C0C0
C0C0
C0C0
C0C0
FF00
FF00
C000
C000
C000
C000
ENDCHAR
STARTCHAR q
ENCODING 113
SWIDTH 875 0
DWIDTH 14 0
BBX 10 14 2 -2
BITMAP
3FC0
3FC0
C0C0
C0C0
C0C0
C0C0
C0C0
C0C0
3FC0
3FC0
00C0
00C0
00C0
00C0
ENDCHAR
STARTCHAR r
ENCODING 114
SWIDTH 750 0
DWIDTH 12 0
BBX 8 12 2 0
BITMAP
CF
CF
F0
F0
C0
C0
C0
C0
C0
C0
C0
C0
ENDCHAR
STARTCHAR s
ENCODING 115
SWIDTH 875 0
DWIDTH 14 0
BBX 10 12 2 0
BITMAP
3F00
3F00
C000
C000
3F00
3F00
00C0
00C0
C0C0
C0C0
3F00
3F00
ENDCHAR
STARTCHAR t
ENCODING 116
SWIDTH 750 0
DWIDTH 12 0
BBX 8 14 2 0
BITMAP
C0
C0
C0
C0
FF
FF
C0
C0
C0
C0
C0
C0
3F
3F
ENDCHAR
STARTCHAR u
ENCODING 117
SWIDTH 875 0
DWIDTH 14 0
BBX 10 12 2 0
BITMAP
C0C0
C0C0
C0C0
C0C0
C0C0
C0C0
C0C0
C0C0
C3C0
C3C0
3CC0
3CC0
ENDCHAR
STARTCHAR v
ENCODING 118
SWIDTH 875 0
DWIDTH 14 0
BBX 10 12 2 0
BITMAP
C0C0
C0C0
C0C0
C0C0
C0C0
C0C0
3300
3300
3300
3300
0C00
0C00
ENDCHAR
STARTCHAR w
ENCODING 119
SWIDTH 1000 0
DWIDTH 16 0
BBX 12 12 2 0
BITMAP
0030
0030
CC30
CC30
CC30
CC30
CC30
CC30
CC30
CC30
33C0
33C0
ENDCHAR
STARTCHAR x
ENCODING 120
SWIDTH 875 0
DWIDTH 14 0
BBX 10 12 2 0
BITMAP
C0C0
C0C0
3300
3300
0C00
0C00
0C00
0C00
3300
3300
C0C0
C0C0
ENDCHAR
STARTCHAR y
ENCODING 121
SWIDTH 750 0
DWIDTH 12 0
BBX 8 12 2 0
BITMAP
C3
C3
C3
C3
C3
C3
3C
3C
0C
0C
F0
F0
ENDCHAR
STARTCHAR z
ENCODING 122
SWIDTH 750 0
DWIDTH 12 0
BBX 8 12 2 0
BITMAP
FF
FF
03
03
0C
0C
30
30
C0
C0
FF
FF
ENDCHAR
STARTCHAR braceleft
ENCODING 123
SWIDTH 750 0
DWIDTH 12 0
BBX 8 16 2 -2
BITMAP
0C
0C
33
33
30
30
C0
C0
C0
C0
30
30
33
33
0C
0C
ENDCHAR
STARTCHAR bar
ENCODING 124
SWIDTH 375 0
DWIDTH 6 0
BBX 2 16 2 -2
BITMAP
C0
C0
C0
C0
C0
C0
C0
C0
C0
C0
C0
C0
C0
C0
C0
C0
ENDCHAR
STARTCHAR braceright
ENCODING 125
SWIDTH 750 0
DWIDTH 12 0
BBX 8 16 2 -2
BITMAP
30
30
CC
CC
0C
0C
03
03
03
03
0C
0C
CC
CC
30
30
ENDCHAR
STARTCHAR asciitilde
ENCODING 126
SWIDTH 1000 0
DWIDTH 16 0
BBX 12 4 2 4
BITMAP
3C30
3C30
C3C0
C3C0
ENDCHAR
STARTCHAR uni007F
ENCODING 127
SWIDTH 1000 0
DWIDTH 16 0
BBX 1 1 0 0
BITMAP
00
ENDCHAR
STARTCHAR uni00A0
ENCODING 160
SWIDTH 1000 0
DWIDTH 16 0
BBX 1 1 0 0
BITMAP
00
ENDCHAR
STARTCHAR exclamdown
ENCODING 161
SWIDTH 375 0
DWIDTH 6 0
BBX 2 14 2 0
BITMAP
C0
C0
00
00
C0
C0
C0
C0
C0
C0
C0
C0
C0
C0
ENDCHAR
STARTCHAR cent
ENCODING 162
SWIDTH 875 0
DWIDTH 14 0
BBX 10 14 2 -2
BITMAP
0C00
0C00
3F00
3F00
CCC0
CCC0
CC00
CC00
CCC0
CCC0
3F00
3F00
0C00
0C00
ENDCHAR
STARTCHAR sterling
ENCODING 163
SWIDTH 1000 0
DWIDTH 16 0
BBX 12 14 2 -2
BITMAP
0FC0
0FC0
3030
3030
3000
3000
3000
3000
FF00
FF00
3030
3030
FFC0
FFC0
ENDCHAR
STARTCHAR currency
ENCODING 164
SWIDTH 1000 0
DWIDTH 16 0
BBX 12 12 2 0
BITMAP
C030
C030
0F00
0F00
30C0
30C0
30C0
30C0
0F00
0F00
C030
C030
ENDCHAR
STARTCHAR yen
ENCODING 165
SWIDTH 875 0
DWIDTH 14 0
BBX 10 14 2 -2
BITMAP
C0C0
C0C0
3300
3300
0C00
0C00
FFC0
FFC0
0C00
0C00
FFC0
FFC0
0C00
0C00
ENDCHAR
STARTCHAR brokenbar
ENCODING 166
SWIDTH 375 0
DWIDTH 6 0
BBX 2 16 2 -2
BITMAP
C0
C0
C0
C0
C0
C0
00
00
C0
C0
C0
C0
C0
C0
C0
C0
ENDCHAR
STARTCHAR section
ENCODING 167
SWIDTH 750 0
DWIDTH 12 0
BBX 8 16 2 -2
BITMAP
3C
3C
C0
C0
3C
3C
C3
C3
C3
C3
3C
3C
03
03
3C
3C
ENDCHAR
STARTCHAR dieresis
ENCODING 168
SWIDTH 750 0
DWIDTH 12 0
BBX 8 2 2 10
BITMAP
C3
C3
ENDCHAR
STARTCHAR copyright
ENCODING 169
SWIDTH 1250 0
DWIDTH 20 0
BBX 16 16 2 -2
BITMAP
0FF0
0FF0
300C
300C
C3C3
C3C3
CC03
CC03
CC33
CC33
C3C3
C3C3
300C
300C
0FF0
0FF0
ENDCHAR
STARTCHAR ordfeminine
ENCODING 170
SWIDTH 875 0
DWIDTH 14 0
BBX 10 10 2 4
BITMAP
0C00
0C00
3300
3300
3F00
3F00
0000
0000
FFC0
FFC0
ENDCHAR
STARTCHAR guillemotleft
ENCODING 171
SWIDTH 750 0
DWIDTH 12 0
BBX 8 8 2 2
BITMAP
33
33
CC
CC
CC
CC
33
33
ENDCHAR
STARTCHAR logicalnot
ENCODING 172
SWIDTH 1000 0
DWIDTH 16 0
BBX 12 6 2 2
BITMAP
FFF0
FFF0
0030
0030
0030
0030
ENDCHAR
STARTCHAR uni00AD
ENCODING 173
SWIDTH 500 0
DWIDTH 8 0
BBX 4 2 2 6
BITMAP
F0
F0
ENDCHAR
STARTCHAR registered
ENCODING 174
SWIDTH 1250 0
DWIDTH 20 0
BBX 16 16 2 -2
BITMAP
3FFC
3FFC
C003
C003
C3C3
C3C3
CC33
CC33
CCC3
CCC3
CC33
CC33
C003
C003
3FFC
3FFC
ENDCHAR
STARTCHAR macron
ENCODING 175
SWIDTH 1000 0
DWIDTH 16 0
BBX 12 2 2 12
BITMAP
FFF0
FFF0
ENDCHAR
STARTCHAR degree
ENCODING 176
SWIDTH 625 0
DWIDTH 10 0
BBX 6 8 2 4
BITMAP
30
30
CC
CC
CC
CC
30
30
ENDCHAR
STARTCHAR plusminus
ENCODING 177
SWIDTH 875 0
DWIDTH 14 0
BBX 10 12 2 0
BITMAP
0C00
0C00
0C00
0C00
FFC0
FFC0
0C00
0C00
0C00
0C00
FFC0
FFC0
ENDCHAR
STARTCHAR uni00B2
ENCODING 178
SWIDTH 625 0
DWIDTH 10 0
BBX 6 10 2 4
BITMAP
F0
F0
0C
0C
30
30
C0
C0
FC
FC
ENDCHAR
STARTCHAR uni00B3
ENCODING 179
SWIDTH 625 0
DWIDTH 10 0
BBX 6 10 2 4
BITMAP
F0
F0
0C
0C
30
30
0C
0C
F0
F0
ENDCHAR
STARTCHAR acute
ENCODING 180
SWIDTH 500 0
DWIDTH 8 0
BBX 4 4 2 10
BITMAP
30
30
C0
C0
ENDCHAR
STARTCHAR mu
ENCODING 181
SWIDTH 1000 0
DWIDTH 16 0
BBX 12 14 2 -2
BITMAP
C0C0
C0C0
C0C0
C0C0
C0C0
C0C0
C3C0
C3C0
FCC0
FCC0
C030
C030
C000
C000
ENDCHAR
STARTCHAR paragraph
ENCODING 182
SWIDTH 875 0
DWIDTH 14 0
BBX 10 16 2 -2
BITMAP
3FC0
3FC0
FCC0
FCC0
FCC0
FCC0
3CC0
3CC0
0CC0
0CC0
0CC0
0CC0
0CC0
0CC0
0CC0
0CC0
ENDCHAR
STARTCHAR periodcentered
ENCODING 183
SWIDTH 500 0
DWIDTH 8 0
BBX 4 4 2 4
BITMAP
F0
F0
F0
F0
ENDCHAR
STARTCHAR cedilla
ENCODING 184
SWIDTH 500 0
DWIDTH 8 0
BBX 4 4 2 -2
BITMAP
C0
C0
30
30
ENDCHAR
STARTCHAR uni00B9
ENCODING 185
SWIDTH 625 0
DWIDTH 10 0
BBX 6 10 2 4
BITMAP
30
30
F0
F0
30
30
30
30
FC
FC
ENDCHAR
STARTCHAR ordmasculine
ENCODING 186
SWIDTH 875 0
DWIDTH 14 0
BBX 10 10 2 4
BITMAP
3F00
3F00
3300
3300
3F00
3F00
0000
0000
FFC0
FFC0
ENDCHAR
STARTCHAR guillemotright
ENCODING 187
SWIDTH 750 0
DWIDTH 12 0
BBX 8 8 2 2
BITMAP
CC
CC
33
33
33
33
CC
CC
ENDCHAR
STARTCHAR onequarter
ENCODING 188
SWIDTH 1250 0
DWIDTH 20 0
BBX 16 16 2 -2
BITMAP
F0C0
F0C0
30C0
30C0
3300
3300
FF0C
FF0C
0C3C
0C3C
0CCC
0CCC
30FF
30FF
300C
300C
ENDCHAR
STARTCHAR onehalf
ENCODING 189
SWIDTH 1125 0
DWIDTH 18 0
BBX 14 16 2 -2
BITMAP
F0C0
F0C0
30C0
30C0
3300
3300
FF30
FF30
0C0C
0C0C
0C30
0C30
30C0
30C0
30FC
30FC
ENDCHAR
STARTCHAR threequarters
ENCODING 190
SWIDTH 1250 0
DWIDTH 20 0
BBX 16 16 2 -2
BITMAP
F0C0
F0C0
0CC0
0CC0
30C0
30C0
0CCC
0CCC
F33C
F33C
0CCC
0CCC
30FF
30FF
300C
300C
ENDCHAR
STARTCHAR questiondown
ENCODING 191
SWIDTH 875 0
DWIDTH 14 0
BBX 10 14 2 -2
BITMAP
0C00
0C00
0000
0000
0300
0300
3C00
3C00
C000
C000
C0C0
C0C0
3F00
3F00
ENDCHAR
STARTCHAR Agrave
ENCODING 192
SWIDTH 1000 0
DWIDTH 16 0
BBX 12 14 2 0
BITMAP
C000
C000
3000
3000
0FC0
0FC0
3030
3030
3030
3030
3FF0
3FF0
3030
3030
ENDCHAR
STARTCHAR Aacute
ENCODING 193
SWIDTH 1000 0
DWIDTH 16 0
BBX 12 14 2 0
BITMAP
0030
0030
00C0
00C0
3F00
3F00
C0C0
C0C0
C0C0
C0C0
FFC0
FFC0
C0C0
C0C0
ENDCHAR
STARTCHAR Acircumflex
ENCODING 194
SWIDTH 1125 0
DWIDTH 18 0
BBX 14 14 2 0
BITMAP
3FF0
3FF0
C00C
C00C
0FC0
0FC0
3030
3030
3030
3030
3FF0
3FF0
3030
3030
ENDCHAR
STARTCHAR Atilde
ENCODING 195
SWIDTH 1250 0
DWIDTH 20 0
BBX 16 14 2 0
BITMAP
3FC3
3FC3
C03C
C03C
0FC0
0FC0
3030
3030
3030
3030
3FF0
3FF0
3030
3030
ENDCHAR
STARTCHAR Adieresis
ENCODING 196
SWIDTH 875 0
DWIDTH 14 0
BBX 10 14 2 0
BITMAP
3300
3300
0000
0000
3F00
3F00
C0C0
C0C0
C0C0
C0C0
FFC0
FFC0
C0C0
C0C0
ENDCHAR
STARTCHAR Aring
ENCODING 197
SWIDTH 875 0
DWIDTH 14 0
BBX 10 14 2 0
BITMAP
3F00
3F00
3300
3300
3F00
3F00
C0C0
C0C0
C0C0
C0C0
FFC0
FFC0
C0C0
C0C0
ENDCHAR
STARTCHAR AE
ENCODING 198
SWIDTH 1125 0
DWIDTH 18 0
BBX 14 14 2 0
BITMAP
03FC
03FC
0CC0
0CC0
30C0
30C0
3FFC
3FFC
C0C0
C0C0
C0C0
C0C0
C0FC
C0FC
ENDCHAR
STARTCHAR Ccedilla
ENCODING 199
SWIDTH 875 0
DWIDTH 14 0
BBX 10 16 2 -2
BITMAP
3F00
3F00
C0C0
C0C0
C000
C000
C000
C000
C000
C000
C0C0
C0C0
3F00
3F00
00C0
00C0
ENDCHAR
STARTCHAR Egrave
ENCODING 200
SWIDTH 1000 0
DWIDTH 16 0
BBX 12 14 2 0
BITMAP
C000
C000
3000
3000
3FF0
3FF0
3000
3000
3FC0
3FC0
3000
3000
3FF0
3FF0
ENDCHAR
STARTCHAR Eacute
ENCODING 201
SWIDTH 1125 0
DWIDTH 18 0
BBX 14 14 2 0
BITMAP
000C
000C
0030
0030
FFC0
FFC0
C000
C000
FF00
FF00
C000
C000
FFC0
FFC0
ENDCHAR
STARTCHAR Ecircumflex
ENCODING 202
SWIDTH 1125 0
DWIDTH 18 0
BBX 14 14 2 0
BITMAP
3FF0
3FF0
C00C
C00C
0FC0
0FC0
0C00
0C00
0FC0
0FC0
0C00
0C00
0FC0
0FC0
ENDCHAR
STARTCHAR Edieresis
ENCODING 203
SWIDTH 875 0
DWIDTH 14 0
BBX 10 14 2 0
BITMAP
3300
3300
0000
0000
FFC0
FFC0
C000
C000
FF00
FF00
C000
C000
FFC0
FFC0
ENDCHAR
STARTCHAR Igrave
ENCODING 204
SWIDTH 625 0
DWIDTH 10 0
BBX 6 14 2 0
BITMAP
C0
C0
30
30
00
00
30
30
30
30
30
30
FC
FC
ENDCHAR
STARTCHAR Iacute
ENCODING 205
SWIDTH 625 0
DWIDTH 10 0
BBX 6 14 2 0
BITMAP
0C
0C
30
30
00
00
30
30
30
30
30
30
FC
FC
ENDCHAR
STARTCHAR Icircumflex
ENCODING 206
SWIDTH 875 0
DWIDTH 14 0
BBX 10 14 2 0
BITMAP
3F00
3F00
C0C0
C0C0
0C00
0C00
0C00
0C00
0C00
0C00
0C00
0C00
3F00
3F00
ENDCHAR
STARTCHAR Idieresis
ENCODING 207
SWIDTH 625 0
DWIDTH 10 0
BBX 6 14 2 0
BITMAP
CC
CC
00
00
00
00
30
30
30
30
30
30
FC
FC
ENDCHAR
STARTCHAR Eth
ENCODING 208
SWIDTH 1000 0
DWIDTH 16 0
BBX 12 14 2 0
BITMAP
FFC0
FFC0
3030
3030
3030
3030
3030
3030
FC30
FC30
3030
3030
3FC0
3FC0
ENDCHAR
STARTCHAR Ntilde
ENCODING 209
SWIDTH 1250 0
DWIDTH 20 0
BBX 16 14 2 0
BITMAP
3FC3
3FC3
C03C
C03C
0C00
0C00
0F30
0F30
0CF0
0CF0
0C30
0C30
0C30
0C30
ENDCHAR
STARTCHAR Ograve
ENCODING 210
SWIDTH 1000 0
DWIDTH 16 0
BBX 12 14 2 0
BITMAP
C000
C000
3000
3000
0FC0
0FC0
3030
3030
3030
3030
3030
3030
0FC0
0FC0
ENDCHAR
STARTCHAR Oacute
ENCODING 211
SWIDTH 1000 0
DWIDTH 16 0
BBX 12 14 2 0
BITMAP
0030
0030
00C0
00C0
3F00
3F00
C0C0
C0C0
C0C0
C0C0
C0C0
C0C0
3F00
3F00
ENDCHAR
STARTCHAR Ocircumflex
ENCODING 212
SWIDTH 1125 0
DWIDTH 18 0
BBX 14 14 2 0
BITMAP
3FF0
3FF0
C00C
C00C
0FC0
0FC0
3030
3030
3030
3030
3030
3030
0FC0
0FC0
ENDCHAR
STARTCHAR Otilde
ENCODING 213
SWIDTH 1250 0
DWIDTH 20 0
BBX 16 14 2 0
BITMAP
3FC3
3FC3
C03C
C03C
0FC0
0FC0
3030
3030
3030
3030
3030
3030
0FC0
0FC0
ENDCHAR
STARTCHAR Odieresis
ENCODING 214
SWIDTH 875 0
DWIDTH 14 0
BBX 10 14 2 0
BITMAP
3300
3300
0000
0000
3F00
3F00
C0C0
C0C0
C0C0
C0C0
C0C0
C0C0
3F00
3F00
ENDCHAR
STARTCHAR multiply
ENCODING 215
SWIDTH 875 0
DWIDTH 14 0
BBX 10 10 2 2
BITMAP
C0C0
C0C0
3300
3300
0C00
0C00
3300
3300
C0C0
C0C0
ENDCHAR
STARTCHAR Oslash
ENCODING 216
SWIDTH 1000 0
DWIDTH 16 0
BBX 12 14 2 0
BITMAP
3F30
3F30
C0C0
C0C0
C330
C330
CC30
CC30
CC30
CC30
3030
3030
CFC0
CFC0
ENDCHAR
STARTCHAR Ugrave
ENCODING 217
SWIDTH 1000 0
DWIDTH 16 0
BBX 12 14 2 0
BITMAP
C000
C000
3000
3000
3030
3030
3030
3030
3030
3030
3030
3030
0FC0
0FC0
ENDCHAR
STARTCHAR Uacute
ENCODING 218
SWIDTH 1000 0
DWIDTH 16 0
BBX 12 14 2 0
BITMAP
0030
0030
00C0
00C0
C0C0
C0C0
C0C0
C0C0
C0C0
C0C0
C0C0
C0C0
3F00
3F00
ENDCHAR
STARTCHAR Ucircumflex
ENCODING 219
SWIDTH 1125 0
DWIDTH 18 0
BBX 14 14 2 0
BITMAP
3FF0
3FF0
C00C
C00C
0000
0000
3030
3030
3030
3030
3030
3030
0FC0
0FC0
ENDCHAR
STARTCHAR Udieresis
ENCODING 220
SWIDTH 875 0
DWIDTH 14 0
BBX 10 14 2 0
BITMAP
3300
3300
0000
0000
C0C0
C0C0
C0C0
C0C0
C0C0
C0C0
C0C0
C0C0
3F00
3F00
ENDCHAR
STARTCHAR Yacute
ENCODING 221
SWIDTH 875 0
DWIDTH 14 0
BBX 10 14 2 0
BITMAP
C300
C300
CC00
CC00
C0C0
C0C0
C0C0
C0C0
3300
3300
0C00
0C00
0C00
0C00
ENDCHAR
STARTCHAR Thorn
ENCODING 222
SWIDTH 750 0
DWIDTH 12 0
BBX 8 12 2 0
BITMAP
C0
C0
FC
FC
C3
C3
C3
C3
FC
FC
C0
C0
ENDCHAR
STARTCHAR germandbls
ENCODING 223
SWIDTH 875 0
DWIDTH 14 0
BBX 10 16 2 -2
BITMAP
3C00
3C00
C300
C300
C300
C300
CFC0
CFC0
C0C0
C0C0
C0C0
C0C0
CF00
CF00
C000
C000
ENDCHAR
STARTCHAR agrave
ENCODING 224
SWIDTH 1000 0
DWIDTH 16 0
BBX 12 14 2 0
BITMAP
C000
C000
3000
3000
0FC0
0FC0
3030
3030
3030
3030
3FF0
3FF0
3030
3030
ENDCHAR
STARTCHAR aacute
ENCODING 225
SWIDTH 1000 0
DWIDTH 16 0
BBX 12 14 2 0
BITMAP
0030
0030
00C0
00C0
3F00
3F00
C0C0
C0C0
C0C0
C0C0
FFC0
FFC0
C0C0
C0C0
ENDCHAR
STARTCHAR acircumflex
ENCODING 226
SWIDTH 1125 0
DWIDTH 18 0
BBX 14 14 2 0
BITMAP
3FF0
3FF0
C00C
C00C
0FC0
0FC0
3030
3030
3030
3030
3FF0
3FF0
3030
3030
ENDCHAR
STARTCHAR atilde
ENCODING 227
SWIDTH 1250 0
DWIDTH 20 0
BBX 16 14 2 0
BITMAP
3FC3
3FC3
C03C
C03C
0FC0
0FC0
3030
3030
3030
3030
3FF0
3FF0
3030
3030
ENDCHAR
STARTCHAR adieresis
ENCODING 228
SWIDTH 875 0
DWIDTH 14 0
BBX 10 14 2 0
BITMAP
3300
3300
0000
0000
3F00
3F00
C0C0
C0C0
C0C0
C0C0
FFC0
FFC0
C0C0
C0C0
ENDCHAR
STARTCHAR aring
ENCODING 229
SWIDTH 875 0
DWIDTH 14 0
BBX 10 14 2 0
BITMAP
3F00
3F00
3300
3300
3F00
3F00
C0C0
C0C0
C0C0
C0C0
FFC0
FFC0
C0C0
C0C0
ENDCHAR
STARTCHAR ae
ENCODING 230
SWIDTH 1125 0
DWIDTH 18 0
BBX 14 12 2 0
BITMAP
03FC
03FC
0CC0
0CC0
30C0
30C0
3FFC
3FFC
C0C0
C0C0
C0FC
C0FC
ENDCHAR
STARTCHAR ccedilla
ENCODING 231
SWIDTH 875 0
DWIDTH 14 0
BBX 10 14 2 -2
BITMAP
3F00
3F00
C0C0
C0C0
C000
C000
C000
C000
C0C0
C0C0
3F00
3F00
00C0
00C0
ENDCHAR
STARTCHAR egrave
ENCODING 232
SWIDTH 1000 0
DWIDTH 16 0
BBX 12 14 2 0
BITMAP
C000
C000
3000
3000
3FF0
3FF0
3000
3000
3FC0
3FC0
3000
3000
3FF0
3FF0
ENDCHAR
STARTCHAR eacute
ENCODING 233
SWIDTH 1125 0
DWIDTH 18 0
BBX 14 14 2 0
BITMAP
000C
000C
0030
0030
FFC0
FFC0
C000
C000
FF00
FF00
C000
C000
FFC0
FFC0
ENDCHAR
STARTCHAR ecircumflex
ENCODING 234
SWIDTH 1125 0
DWIDTH 18 0
BBX 14 14 2 0
BITMAP
3FF0
3FF0
C00C
C00C
0FC0
0FC0
0C00
0C00
0FC0
0FC0
0C00
0C00
0FC0
0FC0
ENDCHAR
STARTCHAR edieresis
ENCODING 235
SWIDTH 875 0
DWIDTH 14 0
BBX 10 14 2 0
BITMAP
3300
3300
0000
0000
FFC0
FFC0
C000
C000
FF00
FF00
C000
C000
FFC0
FFC0
ENDCHAR
STARTCHAR igrave
ENCODING 236
SWIDTH 625 0
DWIDTH 10 0
BBX 6 14 2 0
BITMAP
C0
C0
30
30
00
00
30
30
30
30
30
30
FC
FC
ENDCHAR
STARTCHAR iacute
ENCODING 237
SWIDTH 625 0
DWIDTH 10 0
BBX 6 14 2 0
BITMAP
0C
0C
30
30
00
00
30
30
30
30
30
30
FC
FC
ENDCHAR
STARTCHAR icircumflex
ENCODING 238
SWIDTH 875 0
DWIDTH 14 0
BBX 10 14 2 0
BITMAP
3F00
3F00
C0C0
C0C0
0C00
0C00
0C00
0C00
0C00
0C00
0C00
0C00
3F00
3F00
ENDCHAR
STARTCHAR idieresis
ENCODING 239
SWIDTH 625 0
DWIDTH 10 0
BBX 6 14 2 0
BITMAP
CC
CC
00
00
00
00
30
30
30
30
30
30
FC
FC
ENDCHAR
STARTCHAR eth
ENCODING 240
SWIDTH 1000 0
DWIDTH 16 0
BBX 12 14 2 0
BITMAP
00C0
00C0
00C0
00C0
3F30
3F30
C0C0
C0C0
C0C0
C0C0
C0C0
C0C0
3F00
3F00
ENDCHAR
STARTCHAR ntilde
ENCODING 241
SWIDTH 1250 0
DWIDTH 20 0
BBX 16 14 2 0
BITMAP
3FC3
3FC3
C03C
C03C
0C00
0C00
0F30
0F30
0CF0
0CF0
0C30
0C30
0C30
0C30
ENDCHAR
STARTCHAR ograve
ENCODING 242
SWIDTH 1000 0
DWIDTH 16 0
BBX 12 14 2 0
BITMAP
C000
C000
3000
3000
0FC0
0FC0
3030
3030
3030
3030
3030
3030
0FC0
0FC0
ENDCHAR
STARTCHAR oacute
ENCODING 243
SWIDTH 1000 0
DWIDTH 16 0
BBX 12 14 2 0
BITMAP
0030
0030
00C0
00C0
3F00
3F00
C0C0
C0C0
C0C0
C0C0
C0C0
C0C0
3F00
3F00
ENDCHAR
STARTCHAR ocircumflex
ENCODING 244
SWIDTH 1125 0
DWIDTH 18 0
BBX 14 14 2 0
BITMAP
3FF0
3FF0
C00C
C00C
0FC0
0FC0
3030
3030
3030
3030
3030
3030
0FC0
0FC0
ENDCHAR
STARTCHAR otilde
ENCODING 245
SWIDTH 1250 0
DWIDTH 20 0
BBX 16 14 2 0
BITMAP
3FC3
3FC3
C03C
C03C
0FC0
0FC0
3030
3030
3030
3030
3030
3030
0FC0
0FC0
ENDCHAR
STARTCHAR odieresis
ENCODING 246
SWIDTH 875 0
DWIDTH 14 0
BBX 10 14 2 0
BITMAP
3300
3300
0000
0000
3F00
3F00
C0C0
C0C0
C0C0
C0C0
C0C0
C0C0
3F00
3F00
ENDCHAR
STARTCHAR divide
ENCODING 247
SWIDTH 875 0
DWIDTH 14 0
BBX 10 10 2 2
BITMAP
0C00
0C00
0000
0000
FFC0
FFC0
0000
0000
0C00
0C00
ENDCHAR
STARTCHAR oslash
ENCODING 248
SWIDTH 1000 0
DWIDTH 16 0
BBX 12 12 2 0
BITMAP
3F30
3F30
C0C0
C0C0
C330
C330
CC30
CC30
3030
3030
CFC0
CFC0
ENDCHAR
STARTCHAR ugrave
ENCODING 249
SWIDTH 1000 0
DWIDTH 16 0
BBX 12 14 2 0
BITMAP
C000
C000
3000
3000
3030
3030
3030
3030
3030
3030
3030
3030
0FC0
0FC0
ENDCHAR
STARTCHAR uacute
ENCODING 250
SWIDTH 1000 0
DWIDTH 16 0
BBX 12 14 2 0
BITMAP
0030
0030
00C0
00C0
C0C0
C0C0
C0C0
C0C0
C0C0
C0C0
C0C0
C0C0
3F00
3F00
ENDCHAR
STARTCHAR ucircumflex
ENCODING 251
SWIDTH 1125 0
DWIDTH 18 0
BBX 14 14 2 0
BITMAP
3FF0
3FF0
C00C
C00C
0000
0000
3030
3030
3030
3030
3030
3030
0FC0
0FC0
ENDCHAR
STARTCHAR udieresis
ENCODING 252
SWIDTH 875 0
DWIDTH 14 0
BBX 10 14 2 0
BITMAP
3300
3300
0000
0000
C0C0
C0C0
C0C0
C0C0
C0C0
C0C0
C0C0
C0C0
3F00
3F00
ENDCHAR
STARTCHAR yacute
ENCODING 253
SWIDTH 875 0
DWIDTH 14 0
BBX 10 14 2 0
BITMAP
0300
0300
0C00
0C00
C0C0
C0C0
C0C0
C0C0
3300
3300
0C00
0C00
0C00
0C00
ENDCHAR
STARTCHAR thorn
ENCODING 254
SWIDTH 750 0
DWIDTH 12 0
BBX 8 12 2 0
BITMAP
C0
C0
FC
FC
C3
C3
C3
C3
FC
FC
C0
C0
ENDCHAR
STARTCHAR ydieresis
ENCODING 255
SWIDTH 875 0
DWIDTH 14 0
BBX 10 14 2 0
BITMAP
3300
3300
0000
0000
C0C0
C0C0
C0C0
C0C0
3300
3300
0C00
0C00
0C00
0C00
ENDCHAR
STARTCHAR IJ
ENCODING 306
SWIDTH 1250 0
DWIDTH 20 0
BBX 16 14 2 0
BITMAP
FCFF
FCFF
300C
300C
300C
300C
300C
300C
300C
300C
300C
300C
FCF0
FCF0
ENDCHAR
STARTCHAR ij
ENCODING 307
SWIDTH 1000 0
DWIDTH 16 0
BBX 12 16 2 -2
BITMAP
3000
3000
03F0
03F0
F0C0
F0C0
30C0
30C0
30C0
30C0
30C0
30C0
FCC0
FCC0
0300
0300
ENDCHAR
STARTCHAR Ldot
ENCODING 319
SWIDTH 750 0
DWIDTH 12 0
BBX 8 14 2 0
BITMAP
C0
C0
C0
C0
C3
C3
C0
C0
C0
C0
C0
C0
FF
FF
ENDCHAR
STARTCHAR ldot
ENCODING 320
SWIDTH 750 0
DWIDTH 12 0
BBX 8 12 2 0
BITMAP
C0
C0
C3
C3
C0
C0
C0
C0
C0
C0
3C
3C
ENDCHAR
STARTCHAR napostrophe
ENCODING 329
SWIDTH 1125 0
DWIDTH 18 0
BBX 14 14 2 0
BITMAP
3000
3000
C0F0
C0F0
0F0C
0F0C
0C0C
0C0C
0C0C
0C0C
0C0C
0C0C
0C0C
0C0C
ENDCHAR
STARTCHAR OE
ENCODING 338
SWIDTH 1125 0
DWIDTH 18 0
BBX 14 14 2 0
BITMAP
3FFC
3FFC
C0C0
C0C0
C0C0
C0C0
C0FC
C0FC
C0C0
C0C0
C3C0
C3C0
3CFC
3CFC
ENDCHAR
STARTCHAR oe
ENCODING 339
SWIDTH 1125 0
DWIDTH 18 0
BBX 14 12 2 0
BITMAP
3FFC
3FFC
C0C0
C0C0
C0C0
C0C0
C0FC
C0FC
C3C0
C3C0
3CFC
3CFC
ENDCHAR
STARTCHAR Scaron
ENCODING 352
SWIDTH 875 0
DWIDTH 14 0
BBX 10 14 2 0
BITMAP
C0C0
C0C0
3F00
3F00
C000
C000
3F00
3F00
00C0
00C0
C0C0
C0C0
3F00
3F00
ENDCHAR
STARTCHAR scaron
ENCODING 353
SWIDTH 875 0
DWIDTH 14 0
BBX 10 14 2 0
BITMAP
C0C0
C0C0
3F00
3F00
C000
C000
3F00
3F00
00C0
00C0
C0C0
C0C0
3F00
3F00
ENDCHAR
STARTCHAR Ydieresis
ENCODING 376
SWIDTH 875 0
DWIDTH 14 0
BBX 10 14 2 0
BITMAP
C0C0
C0C0
0000
0000
C0C0
C0C0
3300
3300
0C00
0C00
0C00
0C00
0C00
0C00
ENDCHAR
STARTCHAR Zcaron
ENCODING 381
SWIDTH 875 0
DWIDTH 14 0
BBX 10 14 2 0
BITMAP
C0C0
C0C0
3FC0
3FC0
0300
0300
0C00
0C00
3000
3000
C000
C000
FFC0
FFC0
ENDCHAR
STARTCHAR zcaron
ENCODING 382
SWIDTH 1000 0
DWIDTH 16 0
BBX 12 14 2 0
BITMAP
C030
C030
3FC0
3FC0
00C0
00C0
0300
0300
0C00
0C00
3000
3000
3FC0
3FC0
ENDCHAR
STARTCHAR florin
ENCODING 402
SWIDTH 625 0
DWIDTH 10 0
BBX 6 12 2 0
BITMAP
0C
0C
30
30
FC
FC
30
30
30
30
C0
C0
ENDCHAR
STARTCHAR circumflex
ENCODING 710
SWIDTH 875 0
DWIDTH 14 0
BBX 10 6 2 8
BITMAP
0C00
0C00
3300
3300
C0C0
C0C0
ENDCHAR
STARTCHAR tilde
ENCODING 732
SWIDTH 875 0
DWIDTH 14 0
BBX 10 4 2 8
BITMAP
3CC0
3CC0
C300
C300
ENDCHAR
STARTCHAR endash
ENCODING 8211
SWIDTH 625 0
DWIDTH 10 0
BBX 6 2 2 8
BITMAP
FC
FC
ENDCHAR
STARTCHAR emdash
ENCODING 8212
SWIDTH 875 0
DWIDTH 14 0
BBX 10 2 2 6
BITMAP
FFC0
FFC0
ENDCHAR
STARTCHAR quoteleft
ENCODING 8216
SWIDTH 500 0
DWIDTH 8 0
BBX 4 6 2 6
BITMAP
C0
C0
C0
C0
30
30
ENDCHAR
STARTCHAR quoteright
ENCODING 8217
SWIDTH 500 0
DWIDTH 8 0
BBX 4 6 2 6
BITMAP
C0
C0
30
30
30
30
ENDCHAR
STARTCHAR quotesinglbase
ENCODING 8218
SWIDTH 500 0
DWIDTH 8 0
BBX 4 6 2 -2
BITMAP
30
30
30
30
C0
C0
ENDCHAR
STARTCHAR quotedblleft
ENCODING 8220
SWIDTH 750 0
DWIDTH 12 0
BBX 8 6 2 6
BITMAP
CC
CC
CC
CC
33
33
ENDCHAR
STARTCHAR quotedblright
ENCODING 8221
SWIDTH 750 0
DWIDTH 12 0
BBX 8 6 2 6
BITMAP
CC
CC
33
33
33
33
ENDCHAR
STARTCHAR quotedblbase
ENCODING 8222
SWIDTH 750 0
DWIDTH 12 0
BBX 8 6 2 -2
BITMAP
33
33
33
33
CC
CC
ENDCHAR
STARTCHAR dagger
ENCODING 8224
SWIDTH 625 0
DWIDTH 10 0
BBX 6 12 2 0
BITMAP
30
30
FC
FC
30
30
30
30
30
30
30
30
ENDCHAR
STARTCHAR daggerdbl
ENCODING 8225
SWIDTH 625 0
DWIDTH 10 0
BBX 6 12 2 0
BITMAP
30
30
FC
FC
30
30
30
30
FC
FC
30
30
ENDCHAR
STARTCHAR bullet
ENCODING 8226
SWIDTH 750 0
DWIDTH 12 0
BBX 8 8 2 2
BITMAP
3C
3C
FF
FF
FF
FF
3C
3C
ENDCHAR
STARTCHAR ellipsis
ENCODING 8230
SWIDTH 1125 0
DWIDTH 18 0
BBX 14 2 2 0
BITMAP
C30C
C30C
ENDCHAR
STARTCHAR perthousand
ENCODING 8240
SWIDTH 1250 0
DWIDTH 20 0
BBX 16 16 2 -2
BITMAP
0C0C
0C0C
3330
3330
3330
3330
0C00
0C00
00CC
00CC
3333
3333
3333
3333
C0CC
C0CC
ENDCHAR
STARTCHAR guilsinglleft
ENCODING 8249
SWIDTH 500 0
DWIDTH 8 0
BBX 4 8 2 2
BITMAP
30
30
C0
C0
C0
C0
30
30
ENDCHAR
STARTCHAR guilsinglright
ENCODING 8250
SWIDTH 500 0
DWIDTH 8 0
BBX 4 8 2 2
BITMAP
C0
C0
30
30
30
30
C0
C0
ENDCHAR
STARTCHAR Euro
ENCODING 8364
SWIDTH 1125 0
DWIDTH 18 0
BBX 14 14 2 -2
BITMAP
0FF0
0FF0
300C
300C
FFC0
FFC0
3000
3000
FF00
FF00
300C
300C
0FF0
0FF0
ENDCHAR
STARTCHAR trademark
ENCODING 8482
SWIDTH 1250 0
DWIDTH 20 0
BBX 16 8 2 4
BITMAP
FF03
FF03
30CF
30CF
3333
3333
3303
3303
ENDCHAR
STARTCHAR .notdef
ENCODING -1
SWIDTH 360 0
DWIDTH 6 0
BBX 5 11 1 0
BITMAP
F8
88
88
88
88
88
88
88
88
88
F8
ENDCHAR
STARTCHAR NameMe.129
ENCODING -1
SWIDTH 1000 0
DWIDTH 16 0
BBX 1 1 0 0
BITMAP
00
ENDCHAR
STARTCHAR NameMe.141
ENCODING -1
SWIDTH 1000 0
DWIDTH 16 0
BBX 1 1 0 0
BITMAP
00
ENDCHAR
STARTCHAR NameMe.143
ENCODING -1
SWIDTH 1000 0
DWIDTH 16 0
BBX 1 1 0 0
BITMAP
00
ENDCHAR
STARTCHAR NameMe.144
ENCODING -1
SWIDTH 1000 0
DWIDTH 16 0
BBX 1 1 0 0
BITMAP
00
ENDCHAR
STARTCHAR NameMe.157
ENCODING -1
SWIDTH 1000 0
DWIDTH 16 0
BBX 1 1 0 0
BITMAP
00
ENDCHAR
ENDFONT
